<svg xmlns="http://www.w3.org/2000/svg" viewBox="0 0 64 64">
  <defs>
    <linearGradient id="bg" x1="0%" y1="0%" x2="100%" y2="100%">
      <stop offset="0%" stop-color="#2b7a5d"/>
      <stop offset="100%" stop-color="#194f3b"/>
    </linearGradient>
    <linearGradient id="gold" x1="0%" y1="0%" x2="100%" y2="100%">
      <stop offset="0%" stop-color="#f6d792"/>
      <stop offset="100%" stop-color="#ba8e44"/>
    </linearGradient>
  </defs>
  <rect x="2.5" y="2.5" width="59" height="59" rx="14" fill="url(#bg)"/>
  <rect x="8" y="8" width="48" height="48" rx="10" fill="#f8f1e0" opacity="0.94"/>
  <g fill="url(#gold)">
    <circle cx="20" cy="20" r="3"/>
    <circle cx="32" cy="17.5" r="3.1"/>
    <circle cx="44" cy="20" r="3"/>
    <path d="M20 24h24l-2.5 8H22.5z"/>
    <path d="M26 20h4l1.8 6h-7.6z"/>
    <path d="M34 20h4l1.8 6h-7.6z"/>
    <path d="M17 35h30v5H17z"/>
    <path d="M20 30h24v5H20z"/>
  </g>
  <rect x="2.5" y="2.5" width="59" height="59" rx="14" fill="none" stroke="#0f382a" stroke-width="1.6"/>
</svg>
